<mxfile host="app.diagrams.net" modified="2023-08-07T13:56:59.320Z" agent="Mozilla/5.0 (Windows NT 10.0; Win64; x64) AppleWebKit/537.36 (KHTML, like Gecko) Chrome/115.0.0.0 Safari/537.36" etag="hVLY-EvAr-MrN3qSkMnu" version="21.1.7" type="github">
  <diagram name="Page-1" id="Vrf9OblBH0GO6MKc3ywP">
    <mxGraphModel dx="1767" dy="721" grid="0" gridSize="10" guides="1" tooltips="1" connect="1" arrows="1" fold="1" page="1" pageScale="1" pageWidth="850" pageHeight="1100" math="0" shadow="0">
      <root>
        <mxCell id="0" />
        <mxCell id="1" parent="0" />
        <mxCell id="4ZXo4wKBI_Vgck6GF_2j-45" value="" style="shape=table;startSize=0;container=1;collapsible=0;childLayout=tableLayout;" vertex="1" parent="1">
          <mxGeometry x="110" y="240" width="250" height="240" as="geometry" />
        </mxCell>
        <mxCell id="4ZXo4wKBI_Vgck6GF_2j-46" value="" style="shape=tableRow;horizontal=0;startSize=0;swimlaneHead=0;swimlaneBody=0;strokeColor=inherit;top=0;left=0;bottom=0;right=0;collapsible=0;dropTarget=0;fillColor=none;points=[[0,0.5],[1,0.5]];portConstraint=eastwest;" vertex="1" parent="4ZXo4wKBI_Vgck6GF_2j-45">
          <mxGeometry width="250" height="61" as="geometry" />
        </mxCell>
        <mxCell id="4ZXo4wKBI_Vgck6GF_2j-47" value="0" style="shape=partialRectangle;html=1;whiteSpace=wrap;connectable=0;strokeColor=inherit;overflow=hidden;fillColor=none;top=0;left=0;bottom=0;right=0;pointerEvents=1;" vertex="1" parent="4ZXo4wKBI_Vgck6GF_2j-46">
          <mxGeometry width="63" height="61" as="geometry">
            <mxRectangle width="63" height="61" as="alternateBounds" />
          </mxGeometry>
        </mxCell>
        <mxCell id="4ZXo4wKBI_Vgck6GF_2j-48" value="0" style="shape=partialRectangle;html=1;whiteSpace=wrap;connectable=0;strokeColor=inherit;overflow=hidden;fillColor=none;top=0;left=0;bottom=0;right=0;pointerEvents=1;" vertex="1" parent="4ZXo4wKBI_Vgck6GF_2j-46">
          <mxGeometry x="63" width="62" height="61" as="geometry">
            <mxRectangle width="62" height="61" as="alternateBounds" />
          </mxGeometry>
        </mxCell>
        <mxCell id="4ZXo4wKBI_Vgck6GF_2j-49" value="1" style="shape=partialRectangle;html=1;whiteSpace=wrap;connectable=0;strokeColor=inherit;overflow=hidden;fillColor=none;top=0;left=0;bottom=0;right=0;pointerEvents=1;" vertex="1" parent="4ZXo4wKBI_Vgck6GF_2j-46">
          <mxGeometry x="125" width="63" height="61" as="geometry">
            <mxRectangle width="63" height="61" as="alternateBounds" />
          </mxGeometry>
        </mxCell>
        <mxCell id="4ZXo4wKBI_Vgck6GF_2j-50" value="1" style="shape=partialRectangle;html=1;whiteSpace=wrap;connectable=0;strokeColor=inherit;overflow=hidden;fillColor=none;top=0;left=0;bottom=0;right=0;pointerEvents=1;" vertex="1" parent="4ZXo4wKBI_Vgck6GF_2j-46">
          <mxGeometry x="188" width="62" height="61" as="geometry">
            <mxRectangle width="62" height="61" as="alternateBounds" />
          </mxGeometry>
        </mxCell>
        <mxCell id="4ZXo4wKBI_Vgck6GF_2j-51" value="" style="shape=tableRow;horizontal=0;startSize=0;swimlaneHead=0;swimlaneBody=0;strokeColor=inherit;top=0;left=0;bottom=0;right=0;collapsible=0;dropTarget=0;fillColor=none;points=[[0,0.5],[1,0.5]];portConstraint=eastwest;" vertex="1" parent="4ZXo4wKBI_Vgck6GF_2j-45">
          <mxGeometry y="61" width="250" height="59" as="geometry" />
        </mxCell>
        <mxCell id="4ZXo4wKBI_Vgck6GF_2j-52" value="0" style="shape=partialRectangle;html=1;whiteSpace=wrap;connectable=0;strokeColor=inherit;overflow=hidden;fillColor=none;top=0;left=0;bottom=0;right=0;pointerEvents=1;" vertex="1" parent="4ZXo4wKBI_Vgck6GF_2j-51">
          <mxGeometry width="63" height="59" as="geometry">
            <mxRectangle width="63" height="59" as="alternateBounds" />
          </mxGeometry>
        </mxCell>
        <mxCell id="4ZXo4wKBI_Vgck6GF_2j-53" value="0" style="shape=partialRectangle;html=1;whiteSpace=wrap;connectable=0;strokeColor=inherit;overflow=hidden;fillColor=none;top=0;left=0;bottom=0;right=0;pointerEvents=1;" vertex="1" parent="4ZXo4wKBI_Vgck6GF_2j-51">
          <mxGeometry x="63" width="62" height="59" as="geometry">
            <mxRectangle width="62" height="59" as="alternateBounds" />
          </mxGeometry>
        </mxCell>
        <mxCell id="4ZXo4wKBI_Vgck6GF_2j-54" value="1" style="shape=partialRectangle;html=1;whiteSpace=wrap;connectable=0;strokeColor=inherit;overflow=hidden;fillColor=none;top=0;left=0;bottom=0;right=0;pointerEvents=1;" vertex="1" parent="4ZXo4wKBI_Vgck6GF_2j-51">
          <mxGeometry x="125" width="63" height="59" as="geometry">
            <mxRectangle width="63" height="59" as="alternateBounds" />
          </mxGeometry>
        </mxCell>
        <mxCell id="4ZXo4wKBI_Vgck6GF_2j-55" value="1" style="shape=partialRectangle;html=1;whiteSpace=wrap;connectable=0;strokeColor=inherit;overflow=hidden;fillColor=none;top=0;left=0;bottom=0;right=0;pointerEvents=1;" vertex="1" parent="4ZXo4wKBI_Vgck6GF_2j-51">
          <mxGeometry x="188" width="62" height="59" as="geometry">
            <mxRectangle width="62" height="59" as="alternateBounds" />
          </mxGeometry>
        </mxCell>
        <mxCell id="4ZXo4wKBI_Vgck6GF_2j-56" value="" style="shape=tableRow;horizontal=0;startSize=0;swimlaneHead=0;swimlaneBody=0;strokeColor=inherit;top=0;left=0;bottom=0;right=0;collapsible=0;dropTarget=0;fillColor=none;points=[[0,0.5],[1,0.5]];portConstraint=eastwest;" vertex="1" parent="4ZXo4wKBI_Vgck6GF_2j-45">
          <mxGeometry y="120" width="250" height="61" as="geometry" />
        </mxCell>
        <mxCell id="4ZXo4wKBI_Vgck6GF_2j-57" value="0" style="shape=partialRectangle;html=1;whiteSpace=wrap;connectable=0;strokeColor=inherit;overflow=hidden;fillColor=none;top=0;left=0;bottom=0;right=0;pointerEvents=1;" vertex="1" parent="4ZXo4wKBI_Vgck6GF_2j-56">
          <mxGeometry width="63" height="61" as="geometry">
            <mxRectangle width="63" height="61" as="alternateBounds" />
          </mxGeometry>
        </mxCell>
        <mxCell id="4ZXo4wKBI_Vgck6GF_2j-58" value="1" style="shape=partialRectangle;html=1;whiteSpace=wrap;connectable=0;strokeColor=inherit;overflow=hidden;fillColor=none;top=0;left=0;bottom=0;right=0;pointerEvents=1;" vertex="1" parent="4ZXo4wKBI_Vgck6GF_2j-56">
          <mxGeometry x="63" width="62" height="61" as="geometry">
            <mxRectangle width="62" height="61" as="alternateBounds" />
          </mxGeometry>
        </mxCell>
        <mxCell id="4ZXo4wKBI_Vgck6GF_2j-59" value="X" style="shape=partialRectangle;html=1;whiteSpace=wrap;connectable=0;strokeColor=inherit;overflow=hidden;fillColor=none;top=0;left=0;bottom=0;right=0;pointerEvents=1;" vertex="1" parent="4ZXo4wKBI_Vgck6GF_2j-56">
          <mxGeometry x="125" width="63" height="61" as="geometry">
            <mxRectangle width="63" height="61" as="alternateBounds" />
          </mxGeometry>
        </mxCell>
        <mxCell id="4ZXo4wKBI_Vgck6GF_2j-60" value="1" style="shape=partialRectangle;html=1;whiteSpace=wrap;connectable=0;strokeColor=inherit;overflow=hidden;fillColor=none;top=0;left=0;bottom=0;right=0;pointerEvents=1;" vertex="1" parent="4ZXo4wKBI_Vgck6GF_2j-56">
          <mxGeometry x="188" width="62" height="61" as="geometry">
            <mxRectangle width="62" height="61" as="alternateBounds" />
          </mxGeometry>
        </mxCell>
        <mxCell id="4ZXo4wKBI_Vgck6GF_2j-61" value="" style="shape=tableRow;horizontal=0;startSize=0;swimlaneHead=0;swimlaneBody=0;strokeColor=inherit;top=0;left=0;bottom=0;right=0;collapsible=0;dropTarget=0;fillColor=none;points=[[0,0.5],[1,0.5]];portConstraint=eastwest;" vertex="1" parent="4ZXo4wKBI_Vgck6GF_2j-45">
          <mxGeometry y="181" width="250" height="59" as="geometry" />
        </mxCell>
        <mxCell id="4ZXo4wKBI_Vgck6GF_2j-62" value="0&lt;br&gt;&lt;font color=&quot;#ff3333&quot;&gt;0&lt;/font&gt;" style="shape=partialRectangle;html=1;whiteSpace=wrap;connectable=0;strokeColor=inherit;overflow=hidden;fillColor=none;top=0;left=0;bottom=0;right=0;pointerEvents=1;" vertex="1" parent="4ZXo4wKBI_Vgck6GF_2j-61">
          <mxGeometry width="63" height="59" as="geometry">
            <mxRectangle width="63" height="59" as="alternateBounds" />
          </mxGeometry>
        </mxCell>
        <mxCell id="4ZXo4wKBI_Vgck6GF_2j-63" value="0" style="shape=partialRectangle;html=1;whiteSpace=wrap;connectable=0;strokeColor=inherit;overflow=hidden;fillColor=none;top=0;left=0;bottom=0;right=0;pointerEvents=1;" vertex="1" parent="4ZXo4wKBI_Vgck6GF_2j-61">
          <mxGeometry x="63" width="62" height="59" as="geometry">
            <mxRectangle width="62" height="59" as="alternateBounds" />
          </mxGeometry>
        </mxCell>
        <mxCell id="4ZXo4wKBI_Vgck6GF_2j-64" value="X" style="shape=partialRectangle;html=1;whiteSpace=wrap;connectable=0;strokeColor=inherit;overflow=hidden;fillColor=none;top=0;left=0;bottom=0;right=0;pointerEvents=1;" vertex="1" parent="4ZXo4wKBI_Vgck6GF_2j-61">
          <mxGeometry x="125" width="63" height="59" as="geometry">
            <mxRectangle width="63" height="59" as="alternateBounds" />
          </mxGeometry>
        </mxCell>
        <mxCell id="4ZXo4wKBI_Vgck6GF_2j-65" value="1" style="shape=partialRectangle;html=1;whiteSpace=wrap;connectable=0;strokeColor=inherit;overflow=hidden;fillColor=none;top=0;left=0;bottom=0;right=0;pointerEvents=1;" vertex="1" parent="4ZXo4wKBI_Vgck6GF_2j-61">
          <mxGeometry x="188" width="62" height="59" as="geometry">
            <mxRectangle width="62" height="59" as="alternateBounds" />
          </mxGeometry>
        </mxCell>
        <mxCell id="4ZXo4wKBI_Vgck6GF_2j-67" value="" style="endArrow=none;html=1;rounded=0;" edge="1" parent="1">
          <mxGeometry width="50" height="50" relative="1" as="geometry">
            <mxPoint x="110" y="240" as="sourcePoint" />
            <mxPoint x="60" y="200" as="targetPoint" />
          </mxGeometry>
        </mxCell>
        <mxCell id="4ZXo4wKBI_Vgck6GF_2j-69" value="" style="shape=table;startSize=0;container=1;collapsible=0;childLayout=tableLayout;" vertex="1" parent="1">
          <mxGeometry x="520" y="240" width="250" height="240" as="geometry" />
        </mxCell>
        <mxCell id="4ZXo4wKBI_Vgck6GF_2j-70" value="" style="shape=tableRow;horizontal=0;startSize=0;swimlaneHead=0;swimlaneBody=0;strokeColor=inherit;top=0;left=0;bottom=0;right=0;collapsible=0;dropTarget=0;fillColor=none;points=[[0,0.5],[1,0.5]];portConstraint=eastwest;" vertex="1" parent="4ZXo4wKBI_Vgck6GF_2j-69">
          <mxGeometry width="250" height="61" as="geometry" />
        </mxCell>
        <mxCell id="4ZXo4wKBI_Vgck6GF_2j-71" value="0" style="shape=partialRectangle;html=1;whiteSpace=wrap;connectable=0;strokeColor=inherit;overflow=hidden;fillColor=none;top=0;left=0;bottom=0;right=0;pointerEvents=1;" vertex="1" parent="4ZXo4wKBI_Vgck6GF_2j-70">
          <mxGeometry width="63" height="61" as="geometry">
            <mxRectangle width="63" height="61" as="alternateBounds" />
          </mxGeometry>
        </mxCell>
        <mxCell id="4ZXo4wKBI_Vgck6GF_2j-72" value="1" style="shape=partialRectangle;html=1;whiteSpace=wrap;connectable=0;strokeColor=inherit;overflow=hidden;fillColor=none;top=0;left=0;bottom=0;right=0;pointerEvents=1;" vertex="1" parent="4ZXo4wKBI_Vgck6GF_2j-70">
          <mxGeometry x="63" width="62" height="61" as="geometry">
            <mxRectangle width="62" height="61" as="alternateBounds" />
          </mxGeometry>
        </mxCell>
        <mxCell id="4ZXo4wKBI_Vgck6GF_2j-73" value="1" style="shape=partialRectangle;html=1;whiteSpace=wrap;connectable=0;strokeColor=inherit;overflow=hidden;fillColor=none;top=0;left=0;bottom=0;right=0;pointerEvents=1;" vertex="1" parent="4ZXo4wKBI_Vgck6GF_2j-70">
          <mxGeometry x="125" width="63" height="61" as="geometry">
            <mxRectangle width="63" height="61" as="alternateBounds" />
          </mxGeometry>
        </mxCell>
        <mxCell id="4ZXo4wKBI_Vgck6GF_2j-74" value="0" style="shape=partialRectangle;html=1;whiteSpace=wrap;connectable=0;strokeColor=inherit;overflow=hidden;fillColor=none;top=0;left=0;bottom=0;right=0;pointerEvents=1;" vertex="1" parent="4ZXo4wKBI_Vgck6GF_2j-70">
          <mxGeometry x="188" width="62" height="61" as="geometry">
            <mxRectangle width="62" height="61" as="alternateBounds" />
          </mxGeometry>
        </mxCell>
        <mxCell id="4ZXo4wKBI_Vgck6GF_2j-75" value="" style="shape=tableRow;horizontal=0;startSize=0;swimlaneHead=0;swimlaneBody=0;strokeColor=inherit;top=0;left=0;bottom=0;right=0;collapsible=0;dropTarget=0;fillColor=none;points=[[0,0.5],[1,0.5]];portConstraint=eastwest;" vertex="1" parent="4ZXo4wKBI_Vgck6GF_2j-69">
          <mxGeometry y="61" width="250" height="59" as="geometry" />
        </mxCell>
        <mxCell id="4ZXo4wKBI_Vgck6GF_2j-76" value="0" style="shape=partialRectangle;html=1;whiteSpace=wrap;connectable=0;strokeColor=inherit;overflow=hidden;fillColor=none;top=0;left=0;bottom=0;right=0;pointerEvents=1;" vertex="1" parent="4ZXo4wKBI_Vgck6GF_2j-75">
          <mxGeometry width="63" height="59" as="geometry">
            <mxRectangle width="63" height="59" as="alternateBounds" />
          </mxGeometry>
        </mxCell>
        <mxCell id="4ZXo4wKBI_Vgck6GF_2j-77" value="1" style="shape=partialRectangle;html=1;whiteSpace=wrap;connectable=0;strokeColor=inherit;overflow=hidden;fillColor=none;top=0;left=0;bottom=0;right=0;pointerEvents=1;" vertex="1" parent="4ZXo4wKBI_Vgck6GF_2j-75">
          <mxGeometry x="63" width="62" height="59" as="geometry">
            <mxRectangle width="62" height="59" as="alternateBounds" />
          </mxGeometry>
        </mxCell>
        <mxCell id="4ZXo4wKBI_Vgck6GF_2j-78" value="1" style="shape=partialRectangle;html=1;whiteSpace=wrap;connectable=0;strokeColor=inherit;overflow=hidden;fillColor=none;top=0;left=0;bottom=0;right=0;pointerEvents=1;" vertex="1" parent="4ZXo4wKBI_Vgck6GF_2j-75">
          <mxGeometry x="125" width="63" height="59" as="geometry">
            <mxRectangle width="63" height="59" as="alternateBounds" />
          </mxGeometry>
        </mxCell>
        <mxCell id="4ZXo4wKBI_Vgck6GF_2j-79" value="0" style="shape=partialRectangle;html=1;whiteSpace=wrap;connectable=0;strokeColor=inherit;overflow=hidden;fillColor=none;top=0;left=0;bottom=0;right=0;pointerEvents=1;" vertex="1" parent="4ZXo4wKBI_Vgck6GF_2j-75">
          <mxGeometry x="188" width="62" height="59" as="geometry">
            <mxRectangle width="62" height="59" as="alternateBounds" />
          </mxGeometry>
        </mxCell>
        <mxCell id="4ZXo4wKBI_Vgck6GF_2j-80" value="" style="shape=tableRow;horizontal=0;startSize=0;swimlaneHead=0;swimlaneBody=0;strokeColor=inherit;top=0;left=0;bottom=0;right=0;collapsible=0;dropTarget=0;fillColor=none;points=[[0,0.5],[1,0.5]];portConstraint=eastwest;" vertex="1" parent="4ZXo4wKBI_Vgck6GF_2j-69">
          <mxGeometry y="120" width="250" height="61" as="geometry" />
        </mxCell>
        <mxCell id="4ZXo4wKBI_Vgck6GF_2j-81" value="1" style="shape=partialRectangle;html=1;whiteSpace=wrap;connectable=0;strokeColor=inherit;overflow=hidden;fillColor=none;top=0;left=0;bottom=0;right=0;pointerEvents=1;" vertex="1" parent="4ZXo4wKBI_Vgck6GF_2j-80">
          <mxGeometry width="63" height="61" as="geometry">
            <mxRectangle width="63" height="61" as="alternateBounds" />
          </mxGeometry>
        </mxCell>
        <mxCell id="4ZXo4wKBI_Vgck6GF_2j-82" value="0" style="shape=partialRectangle;html=1;whiteSpace=wrap;connectable=0;strokeColor=inherit;overflow=hidden;fillColor=none;top=0;left=0;bottom=0;right=0;pointerEvents=1;" vertex="1" parent="4ZXo4wKBI_Vgck6GF_2j-80">
          <mxGeometry x="63" width="62" height="61" as="geometry">
            <mxRectangle width="62" height="61" as="alternateBounds" />
          </mxGeometry>
        </mxCell>
        <mxCell id="4ZXo4wKBI_Vgck6GF_2j-83" value="X" style="shape=partialRectangle;html=1;whiteSpace=wrap;connectable=0;strokeColor=inherit;overflow=hidden;fillColor=none;top=0;left=0;bottom=0;right=0;pointerEvents=1;" vertex="1" parent="4ZXo4wKBI_Vgck6GF_2j-80">
          <mxGeometry x="125" width="63" height="61" as="geometry">
            <mxRectangle width="63" height="61" as="alternateBounds" />
          </mxGeometry>
        </mxCell>
        <mxCell id="4ZXo4wKBI_Vgck6GF_2j-84" value="1" style="shape=partialRectangle;html=1;whiteSpace=wrap;connectable=0;strokeColor=inherit;overflow=hidden;fillColor=none;top=0;left=0;bottom=0;right=0;pointerEvents=1;" vertex="1" parent="4ZXo4wKBI_Vgck6GF_2j-80">
          <mxGeometry x="188" width="62" height="61" as="geometry">
            <mxRectangle width="62" height="61" as="alternateBounds" />
          </mxGeometry>
        </mxCell>
        <mxCell id="4ZXo4wKBI_Vgck6GF_2j-85" value="" style="shape=tableRow;horizontal=0;startSize=0;swimlaneHead=0;swimlaneBody=0;strokeColor=inherit;top=0;left=0;bottom=0;right=0;collapsible=0;dropTarget=0;fillColor=none;points=[[0,0.5],[1,0.5]];portConstraint=eastwest;" vertex="1" parent="4ZXo4wKBI_Vgck6GF_2j-69">
          <mxGeometry y="181" width="250" height="59" as="geometry" />
        </mxCell>
        <mxCell id="4ZXo4wKBI_Vgck6GF_2j-86" value="1&lt;br&gt;&lt;font color=&quot;#ff3333&quot;&gt;0&lt;/font&gt;" style="shape=partialRectangle;html=1;whiteSpace=wrap;connectable=0;strokeColor=inherit;overflow=hidden;fillColor=none;top=0;left=0;bottom=0;right=0;pointerEvents=1;" vertex="1" parent="4ZXo4wKBI_Vgck6GF_2j-85">
          <mxGeometry width="63" height="59" as="geometry">
            <mxRectangle width="63" height="59" as="alternateBounds" />
          </mxGeometry>
        </mxCell>
        <mxCell id="4ZXo4wKBI_Vgck6GF_2j-87" value="1" style="shape=partialRectangle;html=1;whiteSpace=wrap;connectable=0;strokeColor=inherit;overflow=hidden;fillColor=none;top=0;left=0;bottom=0;right=0;pointerEvents=1;" vertex="1" parent="4ZXo4wKBI_Vgck6GF_2j-85">
          <mxGeometry x="63" width="62" height="59" as="geometry">
            <mxRectangle width="62" height="59" as="alternateBounds" />
          </mxGeometry>
        </mxCell>
        <mxCell id="4ZXo4wKBI_Vgck6GF_2j-88" value="X" style="shape=partialRectangle;html=1;whiteSpace=wrap;connectable=0;strokeColor=inherit;overflow=hidden;fillColor=none;top=0;left=0;bottom=0;right=0;pointerEvents=1;" vertex="1" parent="4ZXo4wKBI_Vgck6GF_2j-85">
          <mxGeometry x="125" width="63" height="59" as="geometry">
            <mxRectangle width="63" height="59" as="alternateBounds" />
          </mxGeometry>
        </mxCell>
        <mxCell id="4ZXo4wKBI_Vgck6GF_2j-89" value="0" style="shape=partialRectangle;html=1;whiteSpace=wrap;connectable=0;strokeColor=inherit;overflow=hidden;fillColor=none;top=0;left=0;bottom=0;right=0;pointerEvents=1;" vertex="1" parent="4ZXo4wKBI_Vgck6GF_2j-85">
          <mxGeometry x="188" width="62" height="59" as="geometry">
            <mxRectangle width="62" height="59" as="alternateBounds" />
          </mxGeometry>
        </mxCell>
        <mxCell id="4ZXo4wKBI_Vgck6GF_2j-90" value="" style="endArrow=none;html=1;rounded=0;" edge="1" parent="1">
          <mxGeometry width="50" height="50" relative="1" as="geometry">
            <mxPoint x="520" y="240" as="sourcePoint" />
            <mxPoint x="470" y="200" as="targetPoint" />
          </mxGeometry>
        </mxCell>
        <mxCell id="4ZXo4wKBI_Vgck6GF_2j-91" value="Q3Q2" style="text;html=1;strokeColor=none;fillColor=none;align=center;verticalAlign=middle;whiteSpace=wrap;rounded=0;" vertex="1" parent="1">
          <mxGeometry x="70" y="190" width="60" height="30" as="geometry" />
        </mxCell>
        <mxCell id="4ZXo4wKBI_Vgck6GF_2j-92" value="Q1Q0" style="text;html=1;strokeColor=none;fillColor=none;align=center;verticalAlign=middle;whiteSpace=wrap;rounded=0;" vertex="1" parent="1">
          <mxGeometry x="40" y="220" width="60" height="30" as="geometry" />
        </mxCell>
        <mxCell id="4ZXo4wKBI_Vgck6GF_2j-93" value="Q3Q2" style="text;html=1;strokeColor=none;fillColor=none;align=center;verticalAlign=middle;whiteSpace=wrap;rounded=0;" vertex="1" parent="1">
          <mxGeometry x="480" y="190" width="60" height="30" as="geometry" />
        </mxCell>
        <mxCell id="4ZXo4wKBI_Vgck6GF_2j-94" value="Q1Q0" style="text;html=1;strokeColor=none;fillColor=none;align=center;verticalAlign=middle;whiteSpace=wrap;rounded=0;" vertex="1" parent="1">
          <mxGeometry x="440" y="220" width="60" height="30" as="geometry" />
        </mxCell>
        <mxCell id="4ZXo4wKBI_Vgck6GF_2j-95" value="D3" style="text;html=1;strokeColor=none;fillColor=none;align=center;verticalAlign=middle;whiteSpace=wrap;rounded=0;" vertex="1" parent="1">
          <mxGeometry x="199.5" y="170" width="75" height="30" as="geometry" />
        </mxCell>
        <mxCell id="4ZXo4wKBI_Vgck6GF_2j-96" value="D2" style="text;html=1;strokeColor=none;fillColor=none;align=center;verticalAlign=middle;whiteSpace=wrap;rounded=0;" vertex="1" parent="1">
          <mxGeometry x="607.5" y="170" width="75" height="30" as="geometry" />
        </mxCell>
        <mxCell id="4ZXo4wKBI_Vgck6GF_2j-97" value="00" style="text;html=1;strokeColor=none;fillColor=none;align=center;verticalAlign=middle;whiteSpace=wrap;rounded=0;" vertex="1" parent="1">
          <mxGeometry x="110" y="210" width="60" height="30" as="geometry" />
        </mxCell>
        <mxCell id="4ZXo4wKBI_Vgck6GF_2j-98" value="01" style="text;html=1;strokeColor=none;fillColor=none;align=center;verticalAlign=middle;whiteSpace=wrap;rounded=0;" vertex="1" parent="1">
          <mxGeometry x="180" y="210" width="50" height="30" as="geometry" />
        </mxCell>
        <mxCell id="4ZXo4wKBI_Vgck6GF_2j-99" value="11" style="text;html=1;strokeColor=none;fillColor=none;align=center;verticalAlign=middle;whiteSpace=wrap;rounded=0;" vertex="1" parent="1">
          <mxGeometry x="240" y="210" width="50" height="30" as="geometry" />
        </mxCell>
        <mxCell id="4ZXo4wKBI_Vgck6GF_2j-100" value="10" style="text;html=1;strokeColor=none;fillColor=none;align=center;verticalAlign=middle;whiteSpace=wrap;rounded=0;" vertex="1" parent="1">
          <mxGeometry x="300" y="210" width="50" height="30" as="geometry" />
        </mxCell>
        <mxCell id="4ZXo4wKBI_Vgck6GF_2j-101" value="00" style="text;html=1;strokeColor=none;fillColor=none;align=center;verticalAlign=middle;whiteSpace=wrap;rounded=0;" vertex="1" parent="1">
          <mxGeometry x="520" y="210" width="60" height="30" as="geometry" />
        </mxCell>
        <mxCell id="4ZXo4wKBI_Vgck6GF_2j-102" value="01" style="text;html=1;strokeColor=none;fillColor=none;align=center;verticalAlign=middle;whiteSpace=wrap;rounded=0;" vertex="1" parent="1">
          <mxGeometry x="590" y="210" width="50" height="30" as="geometry" />
        </mxCell>
        <mxCell id="4ZXo4wKBI_Vgck6GF_2j-103" value="11" style="text;html=1;strokeColor=none;fillColor=none;align=center;verticalAlign=middle;whiteSpace=wrap;rounded=0;" vertex="1" parent="1">
          <mxGeometry x="650" y="210" width="50" height="30" as="geometry" />
        </mxCell>
        <mxCell id="4ZXo4wKBI_Vgck6GF_2j-104" value="10" style="text;html=1;strokeColor=none;fillColor=none;align=center;verticalAlign=middle;whiteSpace=wrap;rounded=0;" vertex="1" parent="1">
          <mxGeometry x="710" y="210" width="50" height="30" as="geometry" />
        </mxCell>
        <mxCell id="4ZXo4wKBI_Vgck6GF_2j-105" value="00" style="text;html=1;strokeColor=none;fillColor=none;align=center;verticalAlign=middle;whiteSpace=wrap;rounded=0;" vertex="1" parent="1">
          <mxGeometry x="65" y="260" width="60" height="30" as="geometry" />
        </mxCell>
        <mxCell id="4ZXo4wKBI_Vgck6GF_2j-106" value="01" style="text;html=1;strokeColor=none;fillColor=none;align=center;verticalAlign=middle;whiteSpace=wrap;rounded=0;" vertex="1" parent="1">
          <mxGeometry x="70" y="320" width="50" height="30" as="geometry" />
        </mxCell>
        <mxCell id="4ZXo4wKBI_Vgck6GF_2j-107" value="11" style="text;html=1;strokeColor=none;fillColor=none;align=center;verticalAlign=middle;whiteSpace=wrap;rounded=0;" vertex="1" parent="1">
          <mxGeometry x="70" y="380" width="50" height="30" as="geometry" />
        </mxCell>
        <mxCell id="4ZXo4wKBI_Vgck6GF_2j-108" value="10" style="text;html=1;strokeColor=none;fillColor=none;align=center;verticalAlign=middle;whiteSpace=wrap;rounded=0;" vertex="1" parent="1">
          <mxGeometry x="70" y="440" width="50" height="30" as="geometry" />
        </mxCell>
        <mxCell id="4ZXo4wKBI_Vgck6GF_2j-109" value="00" style="text;html=1;strokeColor=none;fillColor=none;align=center;verticalAlign=middle;whiteSpace=wrap;rounded=0;" vertex="1" parent="1">
          <mxGeometry x="470" y="260" width="60" height="30" as="geometry" />
        </mxCell>
        <mxCell id="4ZXo4wKBI_Vgck6GF_2j-110" value="01" style="text;html=1;strokeColor=none;fillColor=none;align=center;verticalAlign=middle;whiteSpace=wrap;rounded=0;" vertex="1" parent="1">
          <mxGeometry x="475" y="320" width="50" height="30" as="geometry" />
        </mxCell>
        <mxCell id="4ZXo4wKBI_Vgck6GF_2j-111" value="11" style="text;html=1;strokeColor=none;fillColor=none;align=center;verticalAlign=middle;whiteSpace=wrap;rounded=0;" vertex="1" parent="1">
          <mxGeometry x="475" y="380" width="50" height="30" as="geometry" />
        </mxCell>
        <mxCell id="4ZXo4wKBI_Vgck6GF_2j-112" value="10" style="text;html=1;strokeColor=none;fillColor=none;align=center;verticalAlign=middle;whiteSpace=wrap;rounded=0;" vertex="1" parent="1">
          <mxGeometry x="475" y="440" width="50" height="30" as="geometry" />
        </mxCell>
        <mxCell id="4ZXo4wKBI_Vgck6GF_2j-114" value="" style="shape=table;startSize=0;container=1;collapsible=0;childLayout=tableLayout;" vertex="1" parent="1">
          <mxGeometry x="116" y="628" width="250" height="239.8823385799633" as="geometry" />
        </mxCell>
        <mxCell id="4ZXo4wKBI_Vgck6GF_2j-115" value="" style="shape=tableRow;horizontal=0;startSize=0;swimlaneHead=0;swimlaneBody=0;strokeColor=inherit;top=0;left=0;bottom=0;right=0;collapsible=0;dropTarget=0;fillColor=none;points=[[0,0.5],[1,0.5]];portConstraint=eastwest;" vertex="1" parent="4ZXo4wKBI_Vgck6GF_2j-114">
          <mxGeometry width="250" height="61" as="geometry" />
        </mxCell>
        <mxCell id="4ZXo4wKBI_Vgck6GF_2j-116" value="0" style="shape=partialRectangle;html=1;whiteSpace=wrap;connectable=0;strokeColor=inherit;overflow=hidden;fillColor=none;top=0;left=0;bottom=0;right=0;pointerEvents=1;" vertex="1" parent="4ZXo4wKBI_Vgck6GF_2j-115">
          <mxGeometry width="63" height="61" as="geometry">
            <mxRectangle width="63" height="61" as="alternateBounds" />
          </mxGeometry>
        </mxCell>
        <mxCell id="4ZXo4wKBI_Vgck6GF_2j-117" value="0" style="shape=partialRectangle;html=1;whiteSpace=wrap;connectable=0;strokeColor=inherit;overflow=hidden;fillColor=none;top=0;left=0;bottom=0;right=0;pointerEvents=1;" vertex="1" parent="4ZXo4wKBI_Vgck6GF_2j-115">
          <mxGeometry x="63" width="62" height="61" as="geometry">
            <mxRectangle width="62" height="61" as="alternateBounds" />
          </mxGeometry>
        </mxCell>
        <mxCell id="4ZXo4wKBI_Vgck6GF_2j-118" value="0" style="shape=partialRectangle;html=1;whiteSpace=wrap;connectable=0;strokeColor=inherit;overflow=hidden;fillColor=none;top=0;left=0;bottom=0;right=0;pointerEvents=1;" vertex="1" parent="4ZXo4wKBI_Vgck6GF_2j-115">
          <mxGeometry x="125" width="63" height="61" as="geometry">
            <mxRectangle width="63" height="61" as="alternateBounds" />
          </mxGeometry>
        </mxCell>
        <mxCell id="4ZXo4wKBI_Vgck6GF_2j-119" value="0" style="shape=partialRectangle;html=1;whiteSpace=wrap;connectable=0;strokeColor=inherit;overflow=hidden;fillColor=none;top=0;left=0;bottom=0;right=0;pointerEvents=1;" vertex="1" parent="4ZXo4wKBI_Vgck6GF_2j-115">
          <mxGeometry x="188" width="62" height="61" as="geometry">
            <mxRectangle width="62" height="61" as="alternateBounds" />
          </mxGeometry>
        </mxCell>
        <mxCell id="4ZXo4wKBI_Vgck6GF_2j-120" value="" style="shape=tableRow;horizontal=0;startSize=0;swimlaneHead=0;swimlaneBody=0;strokeColor=inherit;top=0;left=0;bottom=0;right=0;collapsible=0;dropTarget=0;fillColor=none;points=[[0,0.5],[1,0.5]];portConstraint=eastwest;" vertex="1" parent="4ZXo4wKBI_Vgck6GF_2j-114">
          <mxGeometry y="61" width="250" height="59" as="geometry" />
        </mxCell>
        <mxCell id="4ZXo4wKBI_Vgck6GF_2j-121" value="1" style="shape=partialRectangle;html=1;whiteSpace=wrap;connectable=0;strokeColor=inherit;overflow=hidden;fillColor=none;top=0;left=0;bottom=0;right=0;pointerEvents=1;" vertex="1" parent="4ZXo4wKBI_Vgck6GF_2j-120">
          <mxGeometry width="63" height="59" as="geometry">
            <mxRectangle width="63" height="59" as="alternateBounds" />
          </mxGeometry>
        </mxCell>
        <mxCell id="4ZXo4wKBI_Vgck6GF_2j-122" value="1" style="shape=partialRectangle;html=1;whiteSpace=wrap;connectable=0;strokeColor=inherit;overflow=hidden;fillColor=none;top=0;left=0;bottom=0;right=0;pointerEvents=1;" vertex="1" parent="4ZXo4wKBI_Vgck6GF_2j-120">
          <mxGeometry x="63" width="62" height="59" as="geometry">
            <mxRectangle width="62" height="59" as="alternateBounds" />
          </mxGeometry>
        </mxCell>
        <mxCell id="4ZXo4wKBI_Vgck6GF_2j-123" value="0" style="shape=partialRectangle;html=1;whiteSpace=wrap;connectable=0;strokeColor=inherit;overflow=hidden;fillColor=none;top=0;left=0;bottom=0;right=0;pointerEvents=1;" vertex="1" parent="4ZXo4wKBI_Vgck6GF_2j-120">
          <mxGeometry x="125" width="63" height="59" as="geometry">
            <mxRectangle width="63" height="59" as="alternateBounds" />
          </mxGeometry>
        </mxCell>
        <mxCell id="4ZXo4wKBI_Vgck6GF_2j-124" value="1" style="shape=partialRectangle;html=1;whiteSpace=wrap;connectable=0;strokeColor=inherit;overflow=hidden;fillColor=none;top=0;left=0;bottom=0;right=0;pointerEvents=1;" vertex="1" parent="4ZXo4wKBI_Vgck6GF_2j-120">
          <mxGeometry x="188" width="62" height="59" as="geometry">
            <mxRectangle width="62" height="59" as="alternateBounds" />
          </mxGeometry>
        </mxCell>
        <mxCell id="4ZXo4wKBI_Vgck6GF_2j-125" value="" style="shape=tableRow;horizontal=0;startSize=0;swimlaneHead=0;swimlaneBody=0;strokeColor=inherit;top=0;left=0;bottom=0;right=0;collapsible=0;dropTarget=0;fillColor=none;points=[[0,0.5],[1,0.5]];portConstraint=eastwest;" vertex="1" parent="4ZXo4wKBI_Vgck6GF_2j-114">
          <mxGeometry y="120" width="250" height="61" as="geometry" />
        </mxCell>
        <mxCell id="4ZXo4wKBI_Vgck6GF_2j-126" value="0" style="shape=partialRectangle;html=1;whiteSpace=wrap;connectable=0;strokeColor=inherit;overflow=hidden;fillColor=none;top=0;left=0;bottom=0;right=0;pointerEvents=1;" vertex="1" parent="4ZXo4wKBI_Vgck6GF_2j-125">
          <mxGeometry width="63" height="61" as="geometry">
            <mxRectangle width="63" height="61" as="alternateBounds" />
          </mxGeometry>
        </mxCell>
        <mxCell id="4ZXo4wKBI_Vgck6GF_2j-127" value="0" style="shape=partialRectangle;html=1;whiteSpace=wrap;connectable=0;strokeColor=inherit;overflow=hidden;fillColor=none;top=0;left=0;bottom=0;right=0;pointerEvents=1;" vertex="1" parent="4ZXo4wKBI_Vgck6GF_2j-125">
          <mxGeometry x="63" width="62" height="61" as="geometry">
            <mxRectangle width="62" height="61" as="alternateBounds" />
          </mxGeometry>
        </mxCell>
        <mxCell id="4ZXo4wKBI_Vgck6GF_2j-128" value="X" style="shape=partialRectangle;html=1;whiteSpace=wrap;connectable=0;strokeColor=inherit;overflow=hidden;fillColor=none;top=0;left=0;bottom=0;right=0;pointerEvents=1;" vertex="1" parent="4ZXo4wKBI_Vgck6GF_2j-125">
          <mxGeometry x="125" width="63" height="61" as="geometry">
            <mxRectangle width="63" height="61" as="alternateBounds" />
          </mxGeometry>
        </mxCell>
        <mxCell id="4ZXo4wKBI_Vgck6GF_2j-129" value="0" style="shape=partialRectangle;html=1;whiteSpace=wrap;connectable=0;strokeColor=inherit;overflow=hidden;fillColor=none;top=0;left=0;bottom=0;right=0;pointerEvents=1;" vertex="1" parent="4ZXo4wKBI_Vgck6GF_2j-125">
          <mxGeometry x="188" width="62" height="61" as="geometry">
            <mxRectangle width="62" height="61" as="alternateBounds" />
          </mxGeometry>
        </mxCell>
        <mxCell id="4ZXo4wKBI_Vgck6GF_2j-130" value="" style="shape=tableRow;horizontal=0;startSize=0;swimlaneHead=0;swimlaneBody=0;strokeColor=inherit;top=0;left=0;bottom=0;right=0;collapsible=0;dropTarget=0;fillColor=none;points=[[0,0.5],[1,0.5]];portConstraint=eastwest;" vertex="1" parent="4ZXo4wKBI_Vgck6GF_2j-114">
          <mxGeometry y="181" width="250" height="59" as="geometry" />
        </mxCell>
        <mxCell id="4ZXo4wKBI_Vgck6GF_2j-131" value="1&lt;br&gt;&lt;font color=&quot;#ff3333&quot;&gt;1&lt;/font&gt;" style="shape=partialRectangle;html=1;whiteSpace=wrap;connectable=0;strokeColor=inherit;overflow=hidden;fillColor=none;top=0;left=0;bottom=0;right=0;pointerEvents=1;" vertex="1" parent="4ZXo4wKBI_Vgck6GF_2j-130">
          <mxGeometry width="63" height="59" as="geometry">
            <mxRectangle width="63" height="59" as="alternateBounds" />
          </mxGeometry>
        </mxCell>
        <mxCell id="4ZXo4wKBI_Vgck6GF_2j-132" value="1" style="shape=partialRectangle;html=1;whiteSpace=wrap;connectable=0;strokeColor=inherit;overflow=hidden;fillColor=none;top=0;left=0;bottom=0;right=0;pointerEvents=1;" vertex="1" parent="4ZXo4wKBI_Vgck6GF_2j-130">
          <mxGeometry x="63" width="62" height="59" as="geometry">
            <mxRectangle width="62" height="59" as="alternateBounds" />
          </mxGeometry>
        </mxCell>
        <mxCell id="4ZXo4wKBI_Vgck6GF_2j-133" value="X" style="shape=partialRectangle;html=1;whiteSpace=wrap;connectable=0;strokeColor=inherit;overflow=hidden;fillColor=none;top=0;left=0;bottom=0;right=0;pointerEvents=1;" vertex="1" parent="4ZXo4wKBI_Vgck6GF_2j-130">
          <mxGeometry x="125" width="63" height="59" as="geometry">
            <mxRectangle width="63" height="59" as="alternateBounds" />
          </mxGeometry>
        </mxCell>
        <mxCell id="4ZXo4wKBI_Vgck6GF_2j-134" value="1" style="shape=partialRectangle;html=1;whiteSpace=wrap;connectable=0;strokeColor=inherit;overflow=hidden;fillColor=none;top=0;left=0;bottom=0;right=0;pointerEvents=1;" vertex="1" parent="4ZXo4wKBI_Vgck6GF_2j-130">
          <mxGeometry x="188" width="62" height="59" as="geometry">
            <mxRectangle width="62" height="59" as="alternateBounds" />
          </mxGeometry>
        </mxCell>
        <mxCell id="4ZXo4wKBI_Vgck6GF_2j-135" value="" style="endArrow=none;html=1;rounded=0;" edge="1" parent="1">
          <mxGeometry width="50" height="50" relative="1" as="geometry">
            <mxPoint x="116" y="628" as="sourcePoint" />
            <mxPoint x="66" y="588" as="targetPoint" />
          </mxGeometry>
        </mxCell>
        <mxCell id="4ZXo4wKBI_Vgck6GF_2j-136" value="Q3Q2" style="text;html=1;strokeColor=none;fillColor=none;align=center;verticalAlign=middle;whiteSpace=wrap;rounded=0;" vertex="1" parent="1">
          <mxGeometry x="76" y="578" width="60" height="30" as="geometry" />
        </mxCell>
        <mxCell id="4ZXo4wKBI_Vgck6GF_2j-137" value="Q1Q0" style="text;html=1;strokeColor=none;fillColor=none;align=center;verticalAlign=middle;whiteSpace=wrap;rounded=0;" vertex="1" parent="1">
          <mxGeometry x="46" y="608" width="60" height="30" as="geometry" />
        </mxCell>
        <mxCell id="4ZXo4wKBI_Vgck6GF_2j-138" value="D1" style="text;html=1;strokeColor=none;fillColor=none;align=center;verticalAlign=middle;whiteSpace=wrap;rounded=0;" vertex="1" parent="1">
          <mxGeometry x="203.5" y="558" width="75" height="30" as="geometry" />
        </mxCell>
        <mxCell id="4ZXo4wKBI_Vgck6GF_2j-139" value="00" style="text;html=1;strokeColor=none;fillColor=none;align=center;verticalAlign=middle;whiteSpace=wrap;rounded=0;" vertex="1" parent="1">
          <mxGeometry x="116" y="598" width="60" height="30" as="geometry" />
        </mxCell>
        <mxCell id="4ZXo4wKBI_Vgck6GF_2j-140" value="01" style="text;html=1;strokeColor=none;fillColor=none;align=center;verticalAlign=middle;whiteSpace=wrap;rounded=0;" vertex="1" parent="1">
          <mxGeometry x="186" y="598" width="50" height="30" as="geometry" />
        </mxCell>
        <mxCell id="4ZXo4wKBI_Vgck6GF_2j-141" value="11" style="text;html=1;strokeColor=none;fillColor=none;align=center;verticalAlign=middle;whiteSpace=wrap;rounded=0;" vertex="1" parent="1">
          <mxGeometry x="246" y="598" width="50" height="30" as="geometry" />
        </mxCell>
        <mxCell id="4ZXo4wKBI_Vgck6GF_2j-142" value="10" style="text;html=1;strokeColor=none;fillColor=none;align=center;verticalAlign=middle;whiteSpace=wrap;rounded=0;" vertex="1" parent="1">
          <mxGeometry x="306" y="598" width="50" height="30" as="geometry" />
        </mxCell>
        <mxCell id="4ZXo4wKBI_Vgck6GF_2j-143" value="00" style="text;html=1;strokeColor=none;fillColor=none;align=center;verticalAlign=middle;whiteSpace=wrap;rounded=0;" vertex="1" parent="1">
          <mxGeometry x="71" y="648" width="60" height="30" as="geometry" />
        </mxCell>
        <mxCell id="4ZXo4wKBI_Vgck6GF_2j-144" value="01" style="text;html=1;strokeColor=none;fillColor=none;align=center;verticalAlign=middle;whiteSpace=wrap;rounded=0;" vertex="1" parent="1">
          <mxGeometry x="76" y="708" width="50" height="30" as="geometry" />
        </mxCell>
        <mxCell id="4ZXo4wKBI_Vgck6GF_2j-145" value="11" style="text;html=1;strokeColor=none;fillColor=none;align=center;verticalAlign=middle;whiteSpace=wrap;rounded=0;" vertex="1" parent="1">
          <mxGeometry x="76" y="768" width="50" height="30" as="geometry" />
        </mxCell>
        <mxCell id="4ZXo4wKBI_Vgck6GF_2j-146" value="10" style="text;html=1;strokeColor=none;fillColor=none;align=center;verticalAlign=middle;whiteSpace=wrap;rounded=0;" vertex="1" parent="1">
          <mxGeometry x="76" y="828" width="50" height="30" as="geometry" />
        </mxCell>
        <mxCell id="4ZXo4wKBI_Vgck6GF_2j-147" value="" style="shape=table;startSize=0;container=1;collapsible=0;childLayout=tableLayout;" vertex="1" parent="1">
          <mxGeometry x="520" y="630" width="250" height="240" as="geometry" />
        </mxCell>
        <mxCell id="4ZXo4wKBI_Vgck6GF_2j-148" value="" style="shape=tableRow;horizontal=0;startSize=0;swimlaneHead=0;swimlaneBody=0;strokeColor=inherit;top=0;left=0;bottom=0;right=0;collapsible=0;dropTarget=0;fillColor=none;points=[[0,0.5],[1,0.5]];portConstraint=eastwest;" vertex="1" parent="4ZXo4wKBI_Vgck6GF_2j-147">
          <mxGeometry width="250" height="61" as="geometry" />
        </mxCell>
        <mxCell id="4ZXo4wKBI_Vgck6GF_2j-149" value="1" style="shape=partialRectangle;html=1;whiteSpace=wrap;connectable=0;strokeColor=inherit;overflow=hidden;fillColor=none;top=0;left=0;bottom=0;right=0;pointerEvents=1;" vertex="1" parent="4ZXo4wKBI_Vgck6GF_2j-148">
          <mxGeometry width="63" height="61" as="geometry">
            <mxRectangle width="63" height="61" as="alternateBounds" />
          </mxGeometry>
        </mxCell>
        <mxCell id="4ZXo4wKBI_Vgck6GF_2j-150" value="1" style="shape=partialRectangle;html=1;whiteSpace=wrap;connectable=0;strokeColor=inherit;overflow=hidden;fillColor=none;top=0;left=0;bottom=0;right=0;pointerEvents=1;" vertex="1" parent="4ZXo4wKBI_Vgck6GF_2j-148">
          <mxGeometry x="63" width="62" height="61" as="geometry">
            <mxRectangle width="62" height="61" as="alternateBounds" />
          </mxGeometry>
        </mxCell>
        <mxCell id="4ZXo4wKBI_Vgck6GF_2j-151" value="1" style="shape=partialRectangle;html=1;whiteSpace=wrap;connectable=0;strokeColor=inherit;overflow=hidden;fillColor=none;top=0;left=0;bottom=0;right=0;pointerEvents=1;" vertex="1" parent="4ZXo4wKBI_Vgck6GF_2j-148">
          <mxGeometry x="125" width="63" height="61" as="geometry">
            <mxRectangle width="63" height="61" as="alternateBounds" />
          </mxGeometry>
        </mxCell>
        <mxCell id="4ZXo4wKBI_Vgck6GF_2j-152" value="1" style="shape=partialRectangle;html=1;whiteSpace=wrap;connectable=0;strokeColor=inherit;overflow=hidden;fillColor=none;top=0;left=0;bottom=0;right=0;pointerEvents=1;" vertex="1" parent="4ZXo4wKBI_Vgck6GF_2j-148">
          <mxGeometry x="188" width="62" height="61" as="geometry">
            <mxRectangle width="62" height="61" as="alternateBounds" />
          </mxGeometry>
        </mxCell>
        <mxCell id="4ZXo4wKBI_Vgck6GF_2j-153" value="" style="shape=tableRow;horizontal=0;startSize=0;swimlaneHead=0;swimlaneBody=0;strokeColor=inherit;top=0;left=0;bottom=0;right=0;collapsible=0;dropTarget=0;fillColor=none;points=[[0,0.5],[1,0.5]];portConstraint=eastwest;" vertex="1" parent="4ZXo4wKBI_Vgck6GF_2j-147">
          <mxGeometry y="61" width="250" height="59" as="geometry" />
        </mxCell>
        <mxCell id="4ZXo4wKBI_Vgck6GF_2j-154" value="0" style="shape=partialRectangle;html=1;whiteSpace=wrap;connectable=0;strokeColor=inherit;overflow=hidden;fillColor=none;top=0;left=0;bottom=0;right=0;pointerEvents=1;" vertex="1" parent="4ZXo4wKBI_Vgck6GF_2j-153">
          <mxGeometry width="63" height="59" as="geometry">
            <mxRectangle width="63" height="59" as="alternateBounds" />
          </mxGeometry>
        </mxCell>
        <mxCell id="4ZXo4wKBI_Vgck6GF_2j-155" value="0" style="shape=partialRectangle;html=1;whiteSpace=wrap;connectable=0;strokeColor=inherit;overflow=hidden;fillColor=none;top=0;left=0;bottom=0;right=0;pointerEvents=1;" vertex="1" parent="4ZXo4wKBI_Vgck6GF_2j-153">
          <mxGeometry x="63" width="62" height="59" as="geometry">
            <mxRectangle width="62" height="59" as="alternateBounds" />
          </mxGeometry>
        </mxCell>
        <mxCell id="4ZXo4wKBI_Vgck6GF_2j-156" value="1" style="shape=partialRectangle;html=1;whiteSpace=wrap;connectable=0;strokeColor=inherit;overflow=hidden;fillColor=none;top=0;left=0;bottom=0;right=0;pointerEvents=1;" vertex="1" parent="4ZXo4wKBI_Vgck6GF_2j-153">
          <mxGeometry x="125" width="63" height="59" as="geometry">
            <mxRectangle width="63" height="59" as="alternateBounds" />
          </mxGeometry>
        </mxCell>
        <mxCell id="4ZXo4wKBI_Vgck6GF_2j-157" value="0" style="shape=partialRectangle;html=1;whiteSpace=wrap;connectable=0;strokeColor=inherit;overflow=hidden;fillColor=none;top=0;left=0;bottom=0;right=0;pointerEvents=1;" vertex="1" parent="4ZXo4wKBI_Vgck6GF_2j-153">
          <mxGeometry x="188" width="62" height="59" as="geometry">
            <mxRectangle width="62" height="59" as="alternateBounds" />
          </mxGeometry>
        </mxCell>
        <mxCell id="4ZXo4wKBI_Vgck6GF_2j-158" value="" style="shape=tableRow;horizontal=0;startSize=0;swimlaneHead=0;swimlaneBody=0;strokeColor=inherit;top=0;left=0;bottom=0;right=0;collapsible=0;dropTarget=0;fillColor=none;points=[[0,0.5],[1,0.5]];portConstraint=eastwest;" vertex="1" parent="4ZXo4wKBI_Vgck6GF_2j-147">
          <mxGeometry y="120" width="250" height="61" as="geometry" />
        </mxCell>
        <mxCell id="4ZXo4wKBI_Vgck6GF_2j-159" value="0" style="shape=partialRectangle;html=1;whiteSpace=wrap;connectable=0;strokeColor=inherit;overflow=hidden;fillColor=none;top=0;left=0;bottom=0;right=0;pointerEvents=1;" vertex="1" parent="4ZXo4wKBI_Vgck6GF_2j-158">
          <mxGeometry width="63" height="61" as="geometry">
            <mxRectangle width="63" height="61" as="alternateBounds" />
          </mxGeometry>
        </mxCell>
        <mxCell id="4ZXo4wKBI_Vgck6GF_2j-160" value="0" style="shape=partialRectangle;html=1;whiteSpace=wrap;connectable=0;strokeColor=inherit;overflow=hidden;fillColor=none;top=0;left=0;bottom=0;right=0;pointerEvents=1;" vertex="1" parent="4ZXo4wKBI_Vgck6GF_2j-158">
          <mxGeometry x="63" width="62" height="61" as="geometry">
            <mxRectangle width="62" height="61" as="alternateBounds" />
          </mxGeometry>
        </mxCell>
        <mxCell id="4ZXo4wKBI_Vgck6GF_2j-161" value="X" style="shape=partialRectangle;html=1;whiteSpace=wrap;connectable=0;strokeColor=inherit;overflow=hidden;fillColor=none;top=0;left=0;bottom=0;right=0;pointerEvents=1;" vertex="1" parent="4ZXo4wKBI_Vgck6GF_2j-158">
          <mxGeometry x="125" width="63" height="61" as="geometry">
            <mxRectangle width="63" height="61" as="alternateBounds" />
          </mxGeometry>
        </mxCell>
        <mxCell id="4ZXo4wKBI_Vgck6GF_2j-162" value="0" style="shape=partialRectangle;html=1;whiteSpace=wrap;connectable=0;strokeColor=inherit;overflow=hidden;fillColor=none;top=0;left=0;bottom=0;right=0;pointerEvents=1;" vertex="1" parent="4ZXo4wKBI_Vgck6GF_2j-158">
          <mxGeometry x="188" width="62" height="61" as="geometry">
            <mxRectangle width="62" height="61" as="alternateBounds" />
          </mxGeometry>
        </mxCell>
        <mxCell id="4ZXo4wKBI_Vgck6GF_2j-163" value="" style="shape=tableRow;horizontal=0;startSize=0;swimlaneHead=0;swimlaneBody=0;strokeColor=inherit;top=0;left=0;bottom=0;right=0;collapsible=0;dropTarget=0;fillColor=none;points=[[0,0.5],[1,0.5]];portConstraint=eastwest;" vertex="1" parent="4ZXo4wKBI_Vgck6GF_2j-147">
          <mxGeometry y="181" width="250" height="59" as="geometry" />
        </mxCell>
        <mxCell id="4ZXo4wKBI_Vgck6GF_2j-164" value="0&lt;br&gt;&lt;font color=&quot;#ff3333&quot;&gt;1&lt;/font&gt;" style="shape=partialRectangle;html=1;whiteSpace=wrap;connectable=0;strokeColor=inherit;overflow=hidden;fillColor=none;top=0;left=0;bottom=0;right=0;pointerEvents=1;" vertex="1" parent="4ZXo4wKBI_Vgck6GF_2j-163">
          <mxGeometry width="63" height="59" as="geometry">
            <mxRectangle width="63" height="59" as="alternateBounds" />
          </mxGeometry>
        </mxCell>
        <mxCell id="4ZXo4wKBI_Vgck6GF_2j-165" value="1" style="shape=partialRectangle;html=1;whiteSpace=wrap;connectable=0;strokeColor=inherit;overflow=hidden;fillColor=none;top=0;left=0;bottom=0;right=0;pointerEvents=1;" vertex="1" parent="4ZXo4wKBI_Vgck6GF_2j-163">
          <mxGeometry x="63" width="62" height="59" as="geometry">
            <mxRectangle width="62" height="59" as="alternateBounds" />
          </mxGeometry>
        </mxCell>
        <mxCell id="4ZXo4wKBI_Vgck6GF_2j-166" value="X" style="shape=partialRectangle;html=1;whiteSpace=wrap;connectable=0;strokeColor=inherit;overflow=hidden;fillColor=none;top=0;left=0;bottom=0;right=0;pointerEvents=1;" vertex="1" parent="4ZXo4wKBI_Vgck6GF_2j-163">
          <mxGeometry x="125" width="63" height="59" as="geometry">
            <mxRectangle width="63" height="59" as="alternateBounds" />
          </mxGeometry>
        </mxCell>
        <mxCell id="4ZXo4wKBI_Vgck6GF_2j-167" value="1" style="shape=partialRectangle;html=1;whiteSpace=wrap;connectable=0;strokeColor=inherit;overflow=hidden;fillColor=none;top=0;left=0;bottom=0;right=0;pointerEvents=1;" vertex="1" parent="4ZXo4wKBI_Vgck6GF_2j-163">
          <mxGeometry x="188" width="62" height="59" as="geometry">
            <mxRectangle width="62" height="59" as="alternateBounds" />
          </mxGeometry>
        </mxCell>
        <mxCell id="4ZXo4wKBI_Vgck6GF_2j-168" value="" style="endArrow=none;html=1;rounded=0;" edge="1" parent="1">
          <mxGeometry width="50" height="50" relative="1" as="geometry">
            <mxPoint x="520" y="630" as="sourcePoint" />
            <mxPoint x="470" y="590" as="targetPoint" />
          </mxGeometry>
        </mxCell>
        <mxCell id="4ZXo4wKBI_Vgck6GF_2j-169" value="Q3Q2" style="text;html=1;strokeColor=none;fillColor=none;align=center;verticalAlign=middle;whiteSpace=wrap;rounded=0;" vertex="1" parent="1">
          <mxGeometry x="480" y="580" width="60" height="30" as="geometry" />
        </mxCell>
        <mxCell id="4ZXo4wKBI_Vgck6GF_2j-170" value="Q1Q0" style="text;html=1;strokeColor=none;fillColor=none;align=center;verticalAlign=middle;whiteSpace=wrap;rounded=0;" vertex="1" parent="1">
          <mxGeometry x="450" y="618" width="60" height="30" as="geometry" />
        </mxCell>
        <mxCell id="4ZXo4wKBI_Vgck6GF_2j-171" value="D0" style="text;html=1;strokeColor=none;fillColor=none;align=center;verticalAlign=middle;whiteSpace=wrap;rounded=0;" vertex="1" parent="1">
          <mxGeometry x="607.5" y="560" width="75" height="30" as="geometry" />
        </mxCell>
        <mxCell id="4ZXo4wKBI_Vgck6GF_2j-172" value="00" style="text;html=1;strokeColor=none;fillColor=none;align=center;verticalAlign=middle;whiteSpace=wrap;rounded=0;" vertex="1" parent="1">
          <mxGeometry x="520" y="600" width="60" height="30" as="geometry" />
        </mxCell>
        <mxCell id="4ZXo4wKBI_Vgck6GF_2j-173" value="01" style="text;html=1;strokeColor=none;fillColor=none;align=center;verticalAlign=middle;whiteSpace=wrap;rounded=0;" vertex="1" parent="1">
          <mxGeometry x="590" y="600" width="50" height="30" as="geometry" />
        </mxCell>
        <mxCell id="4ZXo4wKBI_Vgck6GF_2j-174" value="11" style="text;html=1;strokeColor=none;fillColor=none;align=center;verticalAlign=middle;whiteSpace=wrap;rounded=0;" vertex="1" parent="1">
          <mxGeometry x="650" y="600" width="50" height="30" as="geometry" />
        </mxCell>
        <mxCell id="4ZXo4wKBI_Vgck6GF_2j-175" value="10" style="text;html=1;strokeColor=none;fillColor=none;align=center;verticalAlign=middle;whiteSpace=wrap;rounded=0;" vertex="1" parent="1">
          <mxGeometry x="710" y="600" width="50" height="30" as="geometry" />
        </mxCell>
        <mxCell id="4ZXo4wKBI_Vgck6GF_2j-176" value="00" style="text;html=1;strokeColor=none;fillColor=none;align=center;verticalAlign=middle;whiteSpace=wrap;rounded=0;" vertex="1" parent="1">
          <mxGeometry x="475" y="650" width="60" height="30" as="geometry" />
        </mxCell>
        <mxCell id="4ZXo4wKBI_Vgck6GF_2j-177" value="01" style="text;html=1;strokeColor=none;fillColor=none;align=center;verticalAlign=middle;whiteSpace=wrap;rounded=0;" vertex="1" parent="1">
          <mxGeometry x="480" y="710" width="50" height="30" as="geometry" />
        </mxCell>
        <mxCell id="4ZXo4wKBI_Vgck6GF_2j-178" value="11" style="text;html=1;strokeColor=none;fillColor=none;align=center;verticalAlign=middle;whiteSpace=wrap;rounded=0;" vertex="1" parent="1">
          <mxGeometry x="480" y="770" width="50" height="30" as="geometry" />
        </mxCell>
        <mxCell id="4ZXo4wKBI_Vgck6GF_2j-179" value="10" style="text;html=1;strokeColor=none;fillColor=none;align=center;verticalAlign=middle;whiteSpace=wrap;rounded=0;" vertex="1" parent="1">
          <mxGeometry x="480" y="830" width="50" height="30" as="geometry" />
        </mxCell>
      </root>
    </mxGraphModel>
  </diagram>
</mxfile>
